# xmcd
#
# Track frame offsets:
#	150
#	25505
#	44020
#	65827
#	90955
#	112897
#	128570
#	147100
#	173785
#	198057
#	210710
#
# Disc length: 3546 seconds
#
# Revision: 0
# Processed by: cddbd v1.5.2PL0 Copyright (c) Steve Scherf et al.
# Submitted via: dBpowerAMP V4.0
#
DISCID=8d0dd80b
DTITLE=Lynne Jordan - a bit of fun
DYEAR=1900
DGENRE=Jazz
TTITLE0=If I can't sell it (I'll keep sittin' on it)
TTITLE1=Bad Girls
TTITLE2=Never Make a move too soon
TTITLE3=The Weakness
TTITLE4=I will survive
TTITLE5=It takes a great big woman
TTITLE6=I want my money back
TTITLE7=Crazy
TTITLE8=Sympathy for the devil
TTITLE9=Goldfinger
TTITLE10=At last
EXTD=
EXTT0=
EXTT1=
EXTT2=
EXTT3=
EXTT4=
EXTT5=
EXTT6=
EXTT7=
EXTT8=
EXTT9=
EXTT10=
PLAYORDER=
